<svg width="423" height="514" viewBox="0 0 423 514" fill="none" xmlns="http://www.w3.org/2000/svg">
<ellipse cx="194.478" cy="455.91" rx="189.841" ry="57.677" fill="#303548" fill-opacity="0.09"/>
<path d="M365.045 407.667C362.55 414.217 369.412 420.331 375.651 417.212C382.451 413.78 389.875 409.289 397.299 403.3C405.534 396.624 411.897 389.762 416.638 383.71C418.448 381.402 418.76 378.22 417.449 375.6C415.952 372.606 413.706 369.05 410.15 365.806C403.475 359.629 395.739 357.633 390.312 357.009C386.818 356.635 383.511 358.631 382.264 361.938C376.524 377.222 370.722 392.444 364.983 407.729L365.045 407.667Z" fill="#303548"/>
<mask id="mask0_1132_1041" style="mask-type:luminance" maskUnits="userSpaceOnUse" x="364" y="356" width="55" height="63">
<path d="M365.039 407.668C362.544 414.218 369.406 420.332 375.645 417.213C382.445 413.781 389.869 409.29 397.293 403.301C405.528 396.625 411.891 389.763 416.633 383.711C418.442 381.403 418.754 378.221 417.444 375.601C415.946 372.607 413.7 369.051 410.144 365.807C403.469 359.63 395.733 357.634 390.306 357.01C386.812 356.636 383.506 358.632 382.258 361.939C376.518 377.223 370.716 392.445 364.977 407.73L365.039 407.668Z" fill="white"/>
</mask>
<g mask="url(#mask0_1132_1041)">
<path d="M413.492 371.4L369.787 413.165L374.097 417.675L417.802 375.91L413.492 371.4Z" fill="#A4A6B2"/>
</g>
<path d="M372.154 422.702C369.16 422.702 366.228 421.641 363.919 419.52C361.736 417.586 360.426 415.028 359.989 412.283H358.242L377.956 360.191C379.953 354.888 385.255 351.644 390.932 352.268C396.984 352.954 405.78 355.262 413.391 362.25C416.823 365.369 419.568 369.174 421.689 373.417C423.747 377.659 423.248 382.775 420.316 386.518C414.39 394.066 407.652 400.866 400.228 406.856C393.303 412.47 385.754 417.336 377.707 421.329C375.96 422.202 374.026 422.639 372.154 422.639V422.702ZM371.031 404.984L369.409 409.289C368.785 411.035 369.721 412.158 370.22 412.595C370.657 413.032 371.905 413.843 373.527 413.032C380.951 409.289 387.938 404.797 394.364 399.619C401.226 394.066 407.465 387.765 412.955 380.778C413.641 379.842 413.766 378.657 413.267 377.597C411.707 374.352 409.586 371.545 407.028 369.174C401.288 363.872 394.551 362.125 389.872 361.626C388.499 361.501 387.189 362.25 386.69 363.56L371.031 405.046V404.984Z" fill="#1C1B2E"/>
<path d="M280.76 37.655C296.481 33.4751 314.448 26.7998 339.153 30.231C345.267 31.1044 350.944 32.2898 356.247 33.6623C356.247 33.6623 356.309 33.6623 356.309 33.7247C357.807 36.9063 359.242 40.9614 359.865 45.7651C361.924 61.7983 353.502 74.2755 350.632 78.1435C350.632 78.1435 350.632 78.2058 350.632 78.2682C368.911 115.138 388.937 167.543 396.174 232.424C400.104 267.859 405.781 323.632 384.757 389.699C378.207 410.349 370.596 426.943 364.794 438.422C364.794 438.422 364.794 438.422 364.732 438.422C348.449 445.472 329.296 452.584 307.399 458.511C288.246 463.689 270.466 467.058 254.683 469.241C254.683 469.241 254.683 469.241 254.558 469.241C245.138 462.878 235.655 456.577 226.235 450.213C226.235 450.213 226.235 450.213 226.172 450.213L116.623 448.778C116.623 448.778 116.623 448.778 116.56 448.778C109.511 452.896 101.463 457.076 92.4169 461.068C83.8076 464.874 75.6351 467.931 68.1487 470.302C68.1487 470.302 68.1488 470.302 68.0864 470.302C57.5431 468.056 46.9999 465.747 36.3943 463.502C36.3319 463.502 36.2695 463.439 36.2695 463.377L52.4275 259.375C53.1137 233.235 55.7339 202.915 62.0349 169.664C66.7763 144.46 72.8901 121.751 79.3158 101.725C81.2498 90.4959 86.1159 71.0938 99.9656 51.1927C117.933 25.3649 140.953 13.1373 151.746 8.27118C168.715 3.46746 182.065 3.46746 184.81 8.6455C185.31 9.64367 186.807 13.1373 182.627 20.4988C180.256 24.1796 177.886 27.798 175.453 31.4788C175.39 31.6035 175.453 31.7283 175.577 31.6659C183.999 29.3576 193.669 27.3613 204.337 26.3007C214.569 25.4273 227.794 25.3025 243.079 27.5484C258.363 29.8567 271.09 33.9118 280.635 37.7174L280.76 37.655Z" fill="#303548"/>
<mask id="mask1_1132_1041" style="mask-type:luminance" maskUnits="userSpaceOnUse" x="36" y="4" width="364" height="467">
<path d="M280.76 37.6568C296.481 33.477 314.448 26.8017 339.153 30.2329C345.267 31.1063 350.944 32.2916 356.247 33.6641C356.247 33.6641 356.309 33.6641 356.309 33.7265C357.807 36.9082 359.242 40.9633 359.865 45.767C361.924 61.8002 353.502 74.2774 350.632 78.1453C350.632 78.1453 350.632 78.2077 350.632 78.2701C368.911 115.14 388.937 167.544 396.174 232.426C400.104 267.861 405.781 323.634 384.757 389.701C378.207 410.35 370.596 426.945 364.794 438.424C364.794 438.424 364.794 438.424 364.732 438.424C348.449 445.474 329.296 452.586 307.399 458.512C288.246 463.69 270.466 467.059 254.683 469.243C254.683 469.243 254.683 469.243 254.558 469.243C245.138 462.879 235.655 456.578 226.235 450.215C226.235 450.215 226.235 450.215 226.172 450.215L116.623 448.78C116.623 448.78 116.623 448.78 116.56 448.78C109.511 452.898 101.463 457.078 92.4169 461.07C83.8076 464.876 75.6351 467.933 68.1487 470.303C68.1487 470.303 68.1488 470.303 68.0864 470.303C57.5431 468.057 46.9999 465.749 36.3943 463.503C36.3319 463.503 36.2695 463.441 36.2695 463.379L52.4275 259.376C53.1137 233.237 55.7339 202.917 62.0349 169.666C66.7763 144.462 72.8901 121.753 79.3158 101.727C81.2498 90.4977 86.1159 71.0957 99.9656 51.1946C117.933 25.3668 140.953 13.1392 151.746 8.21068C168.715 3.40696 182.065 3.46934 184.81 8.58499C185.31 9.58317 186.807 13.0768 182.627 20.4383C180.256 24.1191 177.886 27.7375 175.453 31.4183C175.39 31.543 175.453 31.6678 175.577 31.6054C183.999 29.2971 193.669 27.3008 204.337 26.3026C214.569 25.4292 227.794 25.3044 243.079 27.5503C258.363 29.8586 271.09 33.9137 280.635 37.7192L280.76 37.6568Z" fill="white"/>
</mask>
<g mask="url(#mask1_1132_1041)">
<path d="M114.316 394.567L116.063 461.132L211.826 458.637L212.699 392.57L114.316 394.567Z" fill="#E0E1E7"/>
</g>
<path d="M68.1472 474.982C67.7729 474.982 67.4609 474.982 67.0866 474.858L52.6755 471.738C46.9359 470.491 41.1964 469.243 35.4569 467.995C33.0863 467.496 31.4642 465.313 31.6514 462.88L47.8093 259.002C48.6204 228.745 51.9268 198.363 57.5416 168.667C61.9086 145.709 67.7105 122.814 74.8849 100.542C78.1289 81.8262 85.5528 63.859 96.2208 48.4497C112.878 24.4311 134.089 11.2053 149.187 4.28046L149.436 4.03091L150.247 3.78137L150.871 3.53183H151.245C161.227 0.786846 183.561 -4.01687 189.051 6.40158C190.548 9.20895 191.422 14.0751 187.429 21.6861V21.8733L186.68 23.0586C186.369 23.5577 186.057 23.9944 185.745 24.4311C191.796 23.1834 197.972 22.2476 204.086 21.6238H204.149C217.374 20.5008 230.787 20.9375 243.951 22.9339C256.678 24.8054 269.155 28.1743 281.133 32.7908C282.755 32.3541 284.439 31.8551 286.186 31.4184C300.909 27.2385 317.629 22.5595 339.963 25.6788C345.889 26.4899 351.816 27.6752 357.556 29.1725H357.868C359.053 29.6715 360.051 30.5449 360.613 31.6679V31.7927C362.671 36.0973 364.044 40.5891 364.668 45.2056C366.539 59.804 360.737 71.7821 356.121 78.6445C379.952 127.43 395.05 178.961 400.976 231.927C404.782 265.927 411.145 322.761 389.372 391.136C384.007 408.042 377.145 424.699 369.097 440.545C368.598 441.544 367.725 442.355 366.726 442.791C348.011 450.901 328.484 457.764 308.77 463.129C291.364 467.87 273.397 471.489 255.43 473.984H255.118H254.806C253.933 473.984 253.059 473.735 252.311 473.298L252.123 473.173L224.923 454.894L117.931 453.459C110.32 457.826 102.459 461.819 94.474 465.313C86.4263 468.869 78.1289 472.05 69.7692 474.733H69.4573C69.083 474.92 68.7087 474.982 68.3343 474.982H68.1472ZM41.3212 459.76C45.813 460.696 50.2424 461.694 54.6718 462.63L67.8976 465.5C75.5711 463.004 83.1822 460.072 90.5437 456.828C98.5915 453.272 106.515 449.279 114.126 444.85C114.874 444.413 115.748 444.164 116.621 444.164H116.683L226.233 445.599C227.169 445.599 228.105 445.911 228.853 446.41L255.742 464.439C272.711 462.006 289.68 458.575 306.212 454.083C324.99 448.967 343.519 442.542 361.361 434.868C368.847 419.896 375.211 404.237 380.327 388.328C401.475 321.825 395.299 266.239 391.556 232.987C385.629 180.209 370.47 128.865 346.451 80.3913L346.264 79.9546C345.702 78.395 345.952 76.6482 346.888 75.3381C350.756 70.16 356.932 59.4296 355.247 46.391C354.873 43.4588 354.062 40.5267 352.939 37.6569C348.198 36.4716 343.332 35.5358 338.528 34.912C318.19 32.0422 302.469 36.4716 288.619 40.4019C286.498 41.0258 284.502 41.5873 282.505 42.0863L281.07 42.835L279.074 42.024C267.346 37.345 255.056 34.0386 242.578 32.167C230.164 30.2954 217.499 29.9211 204.96 30.9193C195.602 31.8551 186.181 33.6019 176.948 36.0973C174.952 36.5964 172.893 35.8478 171.77 34.2257C170.647 32.6037 170.585 30.4202 171.708 28.7981C174.079 25.1798 176.387 21.6238 178.757 18.0054C181.315 13.576 181.128 11.2677 180.879 10.7062C179.943 9.45849 171.895 7.58691 154.427 12.3282L153.928 12.8273H152.992C138.955 19.3155 119.428 31.6055 104.019 53.7525C94.0997 68.0389 87.2373 84.6959 84.2428 102.039V102.351L83.9932 103.1C76.8812 125.122 71.1417 147.768 66.8371 170.477C61.2847 199.736 58.103 229.618 57.292 259.439V259.689L41.446 459.76H41.3212ZM37.3909 458.887H37.4533C37.4533 458.887 37.4533 458.887 37.3909 458.887ZM118.992 452.773H118.929C118.929 452.773 118.929 452.835 118.867 452.835C118.867 452.835 118.929 452.835 118.992 452.773Z" fill="#1C1B2E"/>
<path d="M106.331 244.901L106.518 214.519C106.518 211.4 105.832 208.343 104.397 205.598C99.4059 195.928 93.5416 185.634 86.6168 174.904C81.8131 167.48 77.0093 160.68 72.268 154.379C68.7744 149.763 67.5891 143.773 68.9616 138.159L77.4461 104.221C78.0075 102.1 78.8809 100.041 80.0663 98.2317C83.2479 93.4904 90.2976 85.3178 102.276 82.2609C118.371 78.1434 131.16 86.4408 134.716 89.1234C135.403 89.6225 136.089 90.0591 136.837 90.4958C143.014 93.8647 153.682 98.5436 167.594 99.2299C190.053 100.353 206.398 90.3087 211.95 86.5031C217.066 83.1343 226.112 78.0811 238.402 75.7104C250.692 73.3397 260.986 74.6498 267.162 75.8975C267.536 75.9599 267.91 76.0223 268.285 76.0847C272.465 76.7086 294.923 81.0132 306.278 102.786C315.074 119.63 311.456 135.975 308.336 144.584C306.964 148.328 304.469 151.509 301.162 153.818C288.872 162.302 276.582 170.787 264.292 179.271C260.923 181.579 258.365 184.948 256.993 188.816C254.31 196.614 251.752 205.411 249.756 215.081C246.949 228.618 245.701 241.22 245.451 252.45C245.139 263.367 235.782 271.852 224.864 271.103C191.3 268.857 157.799 266.549 124.298 264.303C114.129 263.617 106.268 255.132 106.331 244.963V244.901Z" fill="#E0E1E7"/>
<path d="M68.1472 474.981C67.7729 474.981 67.4609 474.981 67.0866 474.857L52.6755 471.737C46.9359 470.49 41.1964 469.242 35.4569 467.994C33.0863 467.495 31.4642 465.311 31.6514 462.878L47.8093 259.001C48.6204 228.744 51.9268 198.362 57.5416 168.666C61.9086 145.708 67.7105 122.813 74.8849 100.541C78.1289 81.825 85.5528 63.8579 96.2208 48.4485C112.878 24.4299 134.089 11.2041 149.187 4.27927L149.561 4.1545L150.309 3.78019L150.871 3.59303H151.308C161.289 0.785661 183.624 -4.01806 189.114 6.33801C190.611 9.14538 191.484 14.0115 187.492 21.6226V21.8097L186.743 22.9951C186.431 23.4942 186.119 23.9309 185.807 24.3676C191.859 23.1198 198.035 22.184 204.149 21.5602H204.211C217.437 20.4372 230.85 20.8739 244.013 22.8703C256.74 24.7419 269.217 28.1107 281.195 32.7273C282.817 32.2906 284.502 31.7915 286.249 31.3548C300.972 27.1749 317.691 22.496 340.025 25.6153C345.952 26.4263 351.879 27.6116 357.618 29.1089H357.93C359.115 29.608 360.113 30.4814 360.675 31.6043V31.7291C362.734 36.0337 364.106 40.5255 364.73 45.1421C366.602 59.7404 360.8 71.7185 356.183 78.5809C380.015 127.367 395.112 178.898 401.039 231.863C404.844 265.864 411.208 322.697 389.435 391.072C384.07 407.979 377.207 424.636 369.159 440.482C368.66 441.48 367.787 442.291 366.789 442.728C348.073 450.838 328.546 457.7 308.832 463.066C291.427 467.807 273.459 471.425 255.492 473.921H255.18H254.868C253.995 473.921 253.122 473.671 252.373 473.234L252.186 473.11L224.985 454.831L117.994 453.396C110.382 457.763 102.522 461.755 94.5364 465.249C86.4886 468.805 78.1913 471.987 69.8316 474.669H69.5197C69.1454 474.856 68.771 474.919 68.3967 474.919L68.1472 474.981ZM41.3212 459.759C45.813 460.695 50.2424 461.693 54.6718 462.629L67.8976 465.499C75.5711 463.003 83.1822 460.071 90.5437 456.827C98.5915 453.271 106.515 449.278 114.126 444.849C114.874 444.412 115.748 444.163 116.621 444.163H116.683L226.233 445.598C227.169 445.598 228.105 445.909 228.853 446.409L255.742 464.438C272.711 462.005 289.68 458.574 306.212 454.082C324.99 448.966 343.519 442.541 361.361 434.867C368.847 419.894 375.211 404.236 380.327 388.327C401.475 321.824 395.299 266.238 391.556 232.986C385.629 180.208 370.47 128.864 346.451 80.3901L346.264 79.9534C345.702 78.3938 345.952 76.647 346.888 75.3369C350.756 70.1588 356.932 59.4285 355.247 46.3898C354.873 43.4577 354.062 40.5255 352.939 37.6558C348.198 36.4704 343.332 35.5346 338.528 34.9108C318.19 32.041 302.469 36.4704 288.619 40.4007C286.498 41.0246 284.502 41.5861 282.505 42.0852L281.07 42.8338L279.074 42.0228C267.346 37.3438 255.056 34.0374 242.578 32.1658C230.164 30.2942 217.499 29.9199 204.96 30.9181C195.602 31.8539 186.181 33.6007 176.948 36.0961C174.952 36.5952 172.893 35.8466 171.77 34.2245C170.647 32.6025 170.585 30.419 171.708 28.7969C174.079 25.1786 176.387 21.6226 178.757 18.0042C181.315 13.5748 181.128 11.2665 180.879 10.705C179.943 9.4573 171.895 7.58573 154.427 12.3271L153.928 12.8262H152.992C138.955 19.3143 119.428 31.6043 104.019 53.7513C94.0997 68.0377 87.2373 84.6948 84.2428 102.038V102.35L83.9932 103.099C76.8812 125.121 71.1417 147.767 66.8371 170.475C61.2847 199.734 58.103 229.617 57.292 259.438V259.687L41.446 459.759H41.3212ZM37.3909 458.886H37.4533C37.4533 458.886 37.4533 458.886 37.3909 458.886ZM118.992 452.772H118.929C118.929 452.772 118.929 452.834 118.867 452.834C118.867 452.834 118.929 452.834 118.992 452.772Z" fill="#1C1B2E"/>
<path d="M224.671 152.633C225.233 159.807 218.745 165.796 216.437 167.917C208.576 175.154 198.968 175.341 180.128 175.529C161.537 175.716 152.117 175.653 144.318 168.853C142.572 167.356 134.898 160.618 135.584 152.633C136.77 139.22 160.913 129.737 180.128 129.737C199.343 129.737 223.611 139.532 224.671 152.633Z" fill="#E4A930"/>
<path d="M172.644 180.269C158.545 180.269 149.249 179.333 141.264 172.409C133.903 166.045 130.347 159.058 130.97 152.196C131.657 144.272 138.145 137.098 149.187 131.92C158.295 127.615 169.899 125.058 180.193 125.058C190.487 125.058 202.09 127.678 211.261 132.045C222.366 137.285 228.792 144.46 229.353 152.258C230.102 161.678 222.241 168.977 219.621 171.348C210.325 179.895 198.971 180.02 180.193 180.207C177.51 180.207 175.015 180.207 172.644 180.207V180.269ZM180.131 134.416C161.228 134.416 141.077 143.836 140.266 153.069C139.954 156.75 142.449 161.117 147.378 165.359C153.741 170.911 161.54 171.036 180.068 170.849C198.909 170.662 206.832 170.35 213.257 164.423C215.004 162.801 220.369 157.873 219.995 152.944C219.309 143.898 198.784 134.353 180.131 134.353V134.416Z" fill="#593314"/>
<path d="M272.461 342.1C266.909 342.1 261.482 341.414 256.116 340.041C250.564 338.606 245.136 336.36 240.021 333.428L238.461 332.555L237.9 330.87C233.47 317.645 229.103 304.419 224.674 291.193L223.613 288.011L226.233 285.952C240.333 275.097 253.933 263.244 266.722 250.829C278.638 239.225 290.054 226.811 300.66 214.021L307.897 220.011C297.042 233.112 285.438 245.776 273.272 257.567C261.045 269.483 248.069 280.837 234.593 291.38C238.461 302.984 242.329 314.588 246.197 326.129C250.127 328.25 254.245 329.872 258.425 330.933C271.9 334.426 286.498 332.742 301.845 325.817C312.576 321.013 321.06 314.837 326.238 310.533L332.227 317.707C326.55 322.386 317.379 329.061 305.651 334.302C294.234 339.417 283.129 341.975 272.399 341.975L272.461 342.1Z" fill="#1C1B2E"/>
<path d="M330.919 380.092L331.356 385.582C331.668 389.513 329.484 393.193 325.928 394.816C318.005 398.434 309.708 401.99 300.911 405.421C289.183 410.038 277.891 414.03 267.16 417.399C264.104 418.397 260.735 417.711 258.302 415.59C257.366 414.841 256.492 413.906 255.557 412.907C253.747 410.911 252.437 408.852 251.502 407.106C250.753 405.733 250.441 404.236 250.379 402.676C250.254 394.753 247.01 386.581 245.076 378.533C243.641 372.606 248.257 366.867 254.371 367.054C266.786 367.366 282.258 368.177 293.051 368.863C303.344 369.549 313.201 370.423 322.622 371.546C327.051 372.045 330.482 375.601 330.856 380.03L330.919 380.092Z" fill="#6A6B75"/>
<mask id="mask2_1132_1041" style="mask-type:luminance" maskUnits="userSpaceOnUse" x="244" y="367" width="88" height="51">
<path d="M330.919 380.092L331.356 385.582C331.668 389.513 329.484 393.193 325.928 394.816C318.005 398.434 309.708 401.99 300.911 405.421C289.183 410.038 277.891 414.03 267.16 417.399C264.104 418.397 260.735 417.711 258.302 415.59C257.366 414.841 256.492 413.906 255.557 412.907C253.747 410.911 252.437 408.852 251.502 407.106C250.753 405.733 250.441 404.236 250.379 402.676C250.254 394.753 247.01 386.581 245.076 378.533C243.641 372.606 248.257 366.867 254.371 367.054C266.786 367.366 282.258 368.177 293.051 368.863C303.344 369.549 313.201 370.423 322.622 371.546C327.051 372.045 330.482 375.601 330.856 380.03L330.919 380.092Z" fill="white"/>
</mask>
<g mask="url(#mask2_1132_1041)">
<path d="M328.187 371.657L238.449 407.005L240.393 411.939L330.13 376.591L328.187 371.657Z" fill="#323436"/>
</g>
<path d="M264.415 422.576C261.108 422.576 257.864 421.391 255.306 419.208C254.184 418.209 253.123 417.149 252.125 416.088C250.316 414.092 248.756 411.846 247.446 409.413C246.385 407.417 245.824 405.171 245.761 402.8C245.699 397.872 244.202 392.694 242.642 387.204C241.956 384.771 241.207 382.213 240.583 379.655C239.585 375.413 240.583 370.983 243.328 367.614C246.073 364.246 250.191 362.312 254.558 362.436C266.037 362.748 281.259 363.435 293.424 364.246C303.344 364.869 313.388 365.805 323.245 366.928C329.858 367.677 335.036 373.042 335.597 379.655L336.034 384.708V385.145C336.595 391.009 333.289 396.624 327.924 399.057C319.564 402.862 311.079 406.481 302.72 409.787C291.615 414.154 280.198 418.209 268.657 421.89C267.285 422.327 265.85 422.514 264.415 422.514V422.576ZM254.184 371.794C252.811 371.794 251.501 372.418 250.628 373.479C249.692 374.602 249.38 376.099 249.692 377.471C250.253 379.78 250.877 382.15 251.626 384.583C253.31 390.448 255.057 396.499 255.119 402.613C255.119 403.486 255.306 404.235 255.681 404.921C256.617 406.668 257.802 408.29 259.112 409.787C259.798 410.598 260.609 411.347 261.42 412.096C262.606 413.156 264.29 413.468 265.787 412.969C277.079 409.351 288.371 405.358 299.226 401.053C307.461 397.809 315.821 394.253 323.993 390.51C325.803 389.699 326.863 387.827 326.738 385.893L326.239 380.154C325.927 378.095 324.305 376.411 322.184 376.161C312.452 375.038 302.595 374.165 292.8 373.541C282.943 372.917 267.222 372.106 254.308 371.732C254.308 371.732 254.246 371.732 254.184 371.732V371.794Z" fill="#1C1B2E"/>
<path d="M29.9047 412.533L245.199 408.229C249.191 408.166 252.373 404.922 252.435 400.992C252.81 381.527 252.747 361.377 252.311 340.54C251.749 315.71 250.501 291.879 248.817 269.046C248.567 265.614 246.01 262.807 242.578 262.308C206.956 256.756 166.655 252.513 122.423 251.141C82.7456 249.893 46.125 251.203 13.31 253.886C9.75404 254.198 6.94668 256.943 6.57236 260.499C4.6384 279.027 3.82738 301.299 5.9485 326.191C8.69348 358.757 15.6807 386.269 22.7927 407.542C23.7909 410.599 26.723 412.658 29.9671 412.596L29.9047 412.533Z" fill="#6A6B75"/>
<path d="M29.7183 417.211C24.4778 417.211 19.9237 413.905 18.3016 408.976C9.38044 382.275 3.64094 354.514 1.27028 326.565C-0.601301 304.48 -0.414144 282.083 1.89414 259.936C2.518 254.197 7.13455 249.643 12.9364 249.144C49.3074 246.211 86.1775 245.276 122.611 246.399C162.912 247.646 203.525 251.39 243.39 257.628C248.942 258.502 253.122 263.056 253.559 268.67C255.306 292.439 256.491 316.583 257.053 340.414C257.552 360.503 257.552 380.903 257.177 401.053C257.053 407.542 251.875 412.782 245.324 412.907L32.8999 417.149L30.0302 417.211C29.9678 417.211 29.843 417.211 29.7807 417.211H29.7183ZM92.6033 255.32C66.2764 255.32 39.8248 256.38 13.6851 258.502C12.375 258.626 11.3144 259.624 11.1896 260.935C8.94374 282.458 8.75659 304.293 10.5658 325.754C12.8741 353.016 18.4888 380.029 27.1604 405.982C27.5348 407.042 28.4705 407.729 29.5311 407.853H29.7807L245.075 403.549C246.509 403.549 247.695 402.364 247.757 400.866C248.131 380.84 248.069 360.565 247.632 340.601C247.071 316.957 245.886 293.001 244.139 269.357C244.014 268.109 243.078 267.048 241.83 266.861C202.34 260.747 162.101 257.004 122.237 255.757C112.38 255.445 102.46 255.32 92.5409 255.32H92.6033Z" fill="#1C1B2E"/>
<path d="M19.609 418.21C19.7962 415.278 20.9191 400.929 31.7119 393.068C43.69 384.334 63.7783 386.455 78.6885 400.43C81.3087 402.863 83.4299 405.857 84.9271 409.101C88.4831 416.712 93.4116 431.997 86.4868 448.217C82.7436 456.951 76.9417 462.878 71.8261 466.746C62.5306 473.733 49.9286 474.669 40.0092 468.68C39.6973 468.493 39.4478 468.306 39.1358 468.118C32.3358 463.689 29.2165 457.638 27.9687 454.643C27.7816 454.206 27.5944 453.77 27.3449 453.333C25.4109 449.278 23.3522 444.162 21.8549 438.048C19.921 430.25 19.4843 423.388 19.5466 418.147L19.609 418.21Z" fill="#E4A930"/>
<path d="M54.4239 477.351C48.622 477.351 42.8201 475.792 37.6421 472.61C37.3301 472.423 36.9558 472.173 36.6439 471.986C29.4695 467.245 25.664 460.944 23.73 456.452C23.5429 456.078 23.3557 455.703 23.2309 455.267C20.7355 450.151 18.8015 444.723 17.429 439.171C16.1189 433.806 15.3079 428.316 15.0584 422.826L14.991 421.986L14.9336 417.897C15.2455 412.096 17.3043 397.684 28.908 389.262C35.8329 384.209 45.0036 382.213 54.6734 383.585C64.4057 384.958 74.0755 389.699 81.8113 396.998C84.8683 399.868 87.3013 403.237 89.1105 407.105C92.9784 415.464 98.3436 432.121 90.7325 450.026C87.3013 458.074 81.8737 464.999 74.5746 470.489C68.5231 475.043 61.4111 477.351 54.2991 477.351H54.4239ZM24.2915 418.209C24.2291 424.573 24.9153 430.874 26.4126 436.988C27.6603 441.916 29.4071 446.782 31.5906 451.336C31.8402 451.835 32.0273 452.334 32.2769 452.834C33.7118 456.14 36.4567 460.819 41.7596 464.25C42.0091 464.437 42.2586 464.562 42.4458 464.687C50.4936 469.615 61.1616 468.929 69.0222 463.065C74.9489 458.573 79.4407 452.958 82.1856 446.408C88.3619 431.872 83.8701 418.022 80.6884 411.097C79.3783 408.352 77.6315 405.919 75.448 403.861C62.846 392.007 45.1908 389.013 34.398 396.873C25.9759 402.987 24.4786 414.529 24.2291 418.272L24.2915 418.209Z" fill="#593314"/>
<path d="M184.812 426.196C184.313 421.767 184.937 417.275 186.559 413.157C188.93 407.106 193.733 398.871 203.403 393.693C211.888 389.201 220.247 389.076 226.798 390.262C234.596 391.697 241.396 396.438 245.576 403.176C249.07 408.728 252.688 416.277 254.622 425.634C257.554 439.422 255.558 451.026 253.686 457.95C252.813 461.194 251.44 464.251 249.507 466.996C247.198 470.24 243.517 474.171 237.965 476.853C237.653 476.978 237.341 477.165 237.029 477.29C226.299 482.094 213.697 479.411 205.524 470.989C203.091 468.431 200.596 465.499 198.163 462.13C188.805 448.842 185.81 435.117 184.875 426.071L184.812 426.196Z" fill="#E4A930"/>
<path d="M225.858 484.464C217.124 484.464 208.515 480.97 202.089 474.357C199.219 471.425 196.599 468.243 194.291 464.937C184.496 451.025 181.189 436.426 180.129 426.694V426.445C179.63 421.391 180.316 416.213 182.125 411.472C184.745 404.734 190.173 395.439 201.091 389.575C209.014 385.332 218.184 384.022 227.48 385.707C236.463 387.329 244.449 392.819 249.377 400.742C253.994 408.166 257.238 416.213 259.047 424.76C262.042 439.109 260.17 451.461 258.111 459.26C257.051 463.128 255.429 466.684 253.183 469.803C249.689 474.731 245.197 478.537 239.895 481.157C239.52 481.344 239.146 481.531 238.772 481.656C234.592 483.528 230.162 484.464 225.733 484.464H225.858ZM189.487 425.946C190.423 434.617 193.355 447.344 201.964 459.572C204.023 462.504 206.331 465.249 208.826 467.869C215.751 474.981 226.295 477.102 235.091 473.172C235.34 473.047 235.652 472.922 235.902 472.797C239.77 470.863 243.076 468.056 245.697 464.375C247.256 462.192 248.442 459.634 249.19 456.889C251.062 450.027 252.684 439.234 250.064 426.694C248.504 419.27 245.634 412.221 241.579 405.733C238.023 400.055 232.346 396.125 225.92 394.94C218.559 393.63 211.759 394.565 205.582 397.872C197.16 402.364 192.98 409.6 190.922 414.841C189.612 418.272 189.112 422.015 189.487 425.696V425.946Z" fill="#593314"/>
<path d="M253.496 51.7553L278.638 33.5386L282.942 41.8359L253.496 51.7553Z" fill="#1C1B2E"/>
<path d="M118.744 146.519C124.808 146.519 129.724 137.386 129.724 126.119C129.724 114.852 124.808 105.719 118.744 105.719C112.68 105.719 107.764 114.852 107.764 126.119C107.764 137.386 112.68 146.519 118.744 146.519Z" fill="#1C1B2E"/>
<path d="M124.917 123.811C128.707 123.811 131.78 120.459 131.78 116.325C131.78 112.19 128.707 108.838 124.917 108.838C121.127 108.838 118.055 112.19 118.055 116.325C118.055 120.459 121.127 123.811 124.917 123.811Z" fill="#E0E1E7"/>
<path d="M239.144 146.519C245.208 146.519 250.124 137.386 250.124 126.119C250.124 114.852 245.208 105.719 239.144 105.719C233.08 105.719 228.164 114.852 228.164 126.119C228.164 137.386 233.08 146.519 239.144 146.519Z" fill="#1C1B2E"/>
<path d="M245.323 123.811C249.113 123.811 252.186 120.459 252.186 116.325C252.186 112.19 249.113 108.838 245.323 108.838C241.533 108.838 238.461 112.19 238.461 116.325C238.461 120.459 241.533 123.811 245.323 123.811Z" fill="#E0E1E7"/>
<path d="M122.921 359.068C140.872 359.068 155.424 344.516 155.424 326.565C155.424 308.614 140.872 294.062 122.921 294.062C104.97 294.062 90.418 308.614 90.418 326.565C90.418 344.516 104.97 359.068 122.921 359.068Z" fill="#8EC15B"/>
<mask id="mask3_1132_1041" style="mask-type:luminance" maskUnits="userSpaceOnUse" x="90" y="294" width="66" height="66">
<path d="M122.925 359.069C140.876 359.069 155.428 344.517 155.428 326.566C155.428 308.615 140.876 294.062 122.925 294.062C104.974 294.062 90.4219 308.615 90.4219 326.566C90.4219 344.517 104.974 359.069 122.925 359.069Z" fill="white"/>
</mask>
<g mask="url(#mask3_1132_1041)">
<path d="M104.15 365.494L173.024 296.308L104.462 271.479L72.832 314.587L104.15 365.494Z" fill="#4692C1"/>
<path d="M82.75 350.709L160.795 277.593L67.7773 277.967L82.75 350.709Z" fill="#4F3B8E"/>
</g>
</svg>
